<?xml version="1.0" encoding="UTF-8"?>
<svg xmlns="http://www.w3.org/2000/svg" xmlns:xlink="http://www.w3.org/1999/xlink" width="640px" height="65px" viewBox="0 0 640 65" version="1.1">
<g id="surface1">
<path style=" stroke:none;fill-rule:nonzero;fill:rgb(0%,5.098039%,27.450982%);fill-opacity:1;" d="M 0 52 L 13.332031 43.328125 C 26.667969 34.734375 53.332031 17.265625 80 8.671875 C 106.667969 0 133.332031 0 160 4.328125 C 186.667969 8.734375 213.332031 17.265625 240 23.828125 C 266.667969 30.265625 293.332031 34.734375 320 35.75 C 346.667969 36.765625 373.332031 34.734375 400 33.578125 C 426.667969 32.5 453.332031 32.5 480 29.25 C 506.667969 26 533.332031 19.5 560 23.828125 C 586.667969 28.234375 613.332031 43.265625 626.667969 50.921875 L 640 58.5 L 640 65 L 626.667969 65 C 613.332031 65 586.667969 65 560 65 C 533.332031 65 506.667969 65 480 65 C 453.332031 65 426.667969 65 400 65 C 373.332031 65 346.667969 65 320 65 C 293.332031 65 266.667969 65 240 65 C 213.332031 65 186.667969 65 160 65 C 133.332031 65 106.667969 65 80 65 C 53.332031 65 26.667969 65 13.332031 65 L 0 65 Z M 0 52 "/>
</g>
</svg>
